<mxfile host="app.diagrams.net" modified="2024-05-12T04:20:20.807Z" agent="Mozilla/5.0 (Windows NT 10.0; Win64; x64; rv:125.0) Gecko/20100101 Firefox/125.0" etag="d9UF1rXnOGfWSxvASiAW" version="24.4.0" type="device">
  <diagram name="ページ1" id="6O8cq4Rfigk1k-ii5kAo">
    <mxGraphModel dx="3372" dy="865" grid="1" gridSize="10" guides="1" tooltips="1" connect="1" arrows="1" fold="1" page="1" pageScale="1" pageWidth="827" pageHeight="1169" math="0" shadow="0">
      <root>
        <mxCell id="0" />
        <object label="ネットワーク" id="1">
          <mxCell style="locked=1;" parent="0" />
        </object>
        <mxCell id="ExSx5SIZApUU_Iw7rpWn-4" value="" style="endArrow=oval;html=1;rounded=0;startArrow=oval;startFill=1;endFill=1;strokeWidth=4;fillColor=#a20025;strokeColor=#6F0000;" parent="1" edge="1">
          <mxGeometry width="50" height="50" relative="1" as="geometry">
            <mxPoint x="-727" y="335" as="sourcePoint" />
            <mxPoint x="593" y="335" as="targetPoint" />
          </mxGeometry>
        </mxCell>
        <mxCell id="ExSx5SIZApUU_Iw7rpWn-11" value="10.0.0.0/24" style="text;html=1;align=center;verticalAlign=middle;resizable=0;points=[];autosize=1;strokeColor=none;fillColor=none;" parent="1" vertex="1">
          <mxGeometry x="-817" y="320" width="80" height="30" as="geometry" />
        </mxCell>
        <mxCell id="ExSx5SIZApUU_Iw7rpWn-12" value="インターネット" style="ellipse;shape=cloud;whiteSpace=wrap;html=1;" parent="1" vertex="1">
          <mxGeometry x="-241" width="310" height="100" as="geometry" />
        </mxCell>
        <mxCell id="ExSx5SIZApUU_Iw7rpWn-19" value="" style="endArrow=none;html=1;rounded=0;startArrow=none;startFill=0;endFill=0;strokeWidth=4;fillColor=#008a00;strokeColor=#005700;exitX=0.466;exitY=0.967;exitDx=0;exitDy=0;entryX=0.5;entryY=0;entryDx=0;entryDy=0;exitPerimeter=0;" parent="1" source="ExSx5SIZApUU_Iw7rpWn-12" target="ExSx5SIZApUU_Iw7rpWn-28" edge="1">
          <mxGeometry width="50" height="50" relative="1" as="geometry">
            <mxPoint x="119" y="70" as="sourcePoint" />
            <mxPoint x="-96" y="127" as="targetPoint" />
          </mxGeometry>
        </mxCell>
        <mxCell id="unMDNU1y0vNZGLnm1EJ_-1" value="" style="endArrow=oval;html=1;rounded=0;startArrow=oval;startFill=1;endFill=1;strokeWidth=4;fillColor=#a20025;strokeColor=#1C6EFF;" edge="1" parent="1">
          <mxGeometry width="50" height="50" relative="1" as="geometry">
            <mxPoint x="-727" y="409.5" as="sourcePoint" />
            <mxPoint x="593" y="409.5" as="targetPoint" />
          </mxGeometry>
        </mxCell>
        <mxCell id="unMDNU1y0vNZGLnm1EJ_-2" value="172.16.0.0/24" style="text;html=1;align=center;verticalAlign=middle;resizable=0;points=[];autosize=1;strokeColor=none;fillColor=none;" vertex="1" parent="1">
          <mxGeometry x="-827" y="395" width="100" height="30" as="geometry" />
        </mxCell>
        <mxCell id="unMDNU1y0vNZGLnm1EJ_-11" value="" style="endArrow=none;html=1;rounded=0;startArrow=none;startFill=0;endFill=0;strokeWidth=4;fillColor=#a20025;strokeColor=#1C6EFF;jumpStyle=arc;" edge="1" parent="1">
          <mxGeometry width="50" height="50" relative="1" as="geometry">
            <mxPoint x="-158" y="280" as="sourcePoint" />
            <mxPoint x="-158" y="410" as="targetPoint" />
          </mxGeometry>
        </mxCell>
        <mxCell id="unMDNU1y0vNZGLnm1EJ_-12" value="" style="endArrow=none;html=1;rounded=0;startArrow=none;startFill=0;endFill=0;strokeWidth=4;fillColor=#a20025;strokeColor=#6F0000;jumpStyle=arc;" edge="1" parent="1">
          <mxGeometry width="50" height="50" relative="1" as="geometry">
            <mxPoint x="-40" y="274" as="sourcePoint" />
            <mxPoint x="-40" y="337" as="targetPoint" />
          </mxGeometry>
        </mxCell>
        <mxCell id="unMDNU1y0vNZGLnm1EJ_-19" value="" style="endArrow=none;html=1;rounded=0;startArrow=none;startFill=0;endFill=0;strokeWidth=4;fillColor=#a20025;strokeColor=#1C6EFF;jumpStyle=arc;" edge="1" parent="1">
          <mxGeometry width="50" height="50" relative="1" as="geometry">
            <mxPoint x="-641" y="410" as="sourcePoint" />
            <mxPoint x="-641" y="490" as="targetPoint" />
          </mxGeometry>
        </mxCell>
        <mxCell id="unMDNU1y0vNZGLnm1EJ_-20" value="" style="endArrow=none;html=1;rounded=0;startArrow=none;startFill=0;endFill=0;strokeWidth=4;fillColor=#a20025;strokeColor=#1C6EFF;jumpStyle=arc;" edge="1" parent="1">
          <mxGeometry width="50" height="50" relative="1" as="geometry">
            <mxPoint x="-409" y="410" as="sourcePoint" />
            <mxPoint x="-409" y="490" as="targetPoint" />
          </mxGeometry>
        </mxCell>
        <mxCell id="unMDNU1y0vNZGLnm1EJ_-21" value="" style="endArrow=none;html=1;rounded=0;startArrow=none;startFill=0;endFill=0;strokeWidth=4;fillColor=#a20025;strokeColor=#6F0000;jumpStyle=arc;" edge="1" parent="1">
          <mxGeometry width="50" height="50" relative="1" as="geometry">
            <mxPoint x="-303" y="336" as="sourcePoint" />
            <mxPoint x="-303" y="490" as="targetPoint" />
          </mxGeometry>
        </mxCell>
        <mxCell id="unMDNU1y0vNZGLnm1EJ_-22" value="" style="endArrow=none;html=1;rounded=0;startArrow=none;startFill=0;endFill=0;strokeWidth=4;fillColor=#a20025;strokeColor=#6F0000;jumpStyle=arc;" edge="1" parent="1">
          <mxGeometry width="50" height="50" relative="1" as="geometry">
            <mxPoint x="-519" y="333" as="sourcePoint" />
            <mxPoint x="-519" y="487" as="targetPoint" />
          </mxGeometry>
        </mxCell>
        <mxCell id="unMDNU1y0vNZGLnm1EJ_-23" value="" style="endArrow=none;html=1;rounded=0;startArrow=none;startFill=0;endFill=0;strokeWidth=4;fillColor=#a20025;strokeColor=#1C6EFF;jumpStyle=arc;" edge="1" parent="1">
          <mxGeometry width="50" height="50" relative="1" as="geometry">
            <mxPoint x="-130" y="408.5" as="sourcePoint" />
            <mxPoint x="-130" y="488.5" as="targetPoint" />
          </mxGeometry>
        </mxCell>
        <mxCell id="unMDNU1y0vNZGLnm1EJ_-24" value="" style="endArrow=none;html=1;rounded=0;startArrow=none;startFill=0;endFill=0;strokeWidth=4;fillColor=#a20025;strokeColor=#1C6EFF;jumpStyle=arc;" edge="1" parent="1">
          <mxGeometry width="50" height="50" relative="1" as="geometry">
            <mxPoint x="102" y="408.5" as="sourcePoint" />
            <mxPoint x="102" y="488.5" as="targetPoint" />
          </mxGeometry>
        </mxCell>
        <mxCell id="unMDNU1y0vNZGLnm1EJ_-25" value="" style="endArrow=none;html=1;rounded=0;startArrow=none;startFill=0;endFill=0;strokeWidth=4;fillColor=#a20025;strokeColor=#6F0000;jumpStyle=arc;" edge="1" parent="1">
          <mxGeometry width="50" height="50" relative="1" as="geometry">
            <mxPoint x="208" y="334.5" as="sourcePoint" />
            <mxPoint x="208" y="488.5" as="targetPoint" />
          </mxGeometry>
        </mxCell>
        <mxCell id="unMDNU1y0vNZGLnm1EJ_-26" value="" style="endArrow=none;html=1;rounded=0;startArrow=none;startFill=0;endFill=0;strokeWidth=4;fillColor=#a20025;strokeColor=#6F0000;jumpStyle=arc;" edge="1" parent="1">
          <mxGeometry width="50" height="50" relative="1" as="geometry">
            <mxPoint x="-8" y="333.5" as="sourcePoint" />
            <mxPoint x="-8" y="487.5" as="targetPoint" />
          </mxGeometry>
        </mxCell>
        <mxCell id="unMDNU1y0vNZGLnm1EJ_-27" value="" style="endArrow=none;html=1;rounded=0;startArrow=none;startFill=0;endFill=0;strokeWidth=4;fillColor=#a20025;strokeColor=#1C6EFF;jumpStyle=arc;" edge="1" parent="1">
          <mxGeometry width="50" height="50" relative="1" as="geometry">
            <mxPoint x="374" y="410" as="sourcePoint" />
            <mxPoint x="374" y="490" as="targetPoint" />
          </mxGeometry>
        </mxCell>
        <mxCell id="unMDNU1y0vNZGLnm1EJ_-28" value="" style="endArrow=none;html=1;rounded=0;startArrow=none;startFill=0;endFill=0;strokeWidth=4;fillColor=#a20025;strokeColor=#6F0000;jumpStyle=arc;" edge="1" parent="1">
          <mxGeometry width="50" height="50" relative="1" as="geometry">
            <mxPoint x="493" y="333" as="sourcePoint" />
            <mxPoint x="493" y="487" as="targetPoint" />
          </mxGeometry>
        </mxCell>
        <object label="マシン" id="ExSx5SIZApUU_Iw7rpWn-6">
          <mxCell style="locked=1;" parent="0" />
        </object>
        <mxCell id="ExSx5SIZApUU_Iw7rpWn-8" value="&lt;font style=&quot;font-size: 18px;&quot;&gt;Compute Node&lt;/font&gt;" style="rounded=1;whiteSpace=wrap;html=1;fillColor=#dae8fc;strokeColor=#6c8ebf;" parent="ExSx5SIZApUU_Iw7rpWn-6" vertex="1">
          <mxGeometry x="-190" y="490" width="460" height="120" as="geometry" />
        </mxCell>
        <mxCell id="ExSx5SIZApUU_Iw7rpWn-9" value="&lt;div style=&quot;font-size: 18px;&quot;&gt;&lt;font style=&quot;font-size: 18px;&quot;&gt;Gateway&lt;/font&gt;&lt;/div&gt;" style="rounded=1;whiteSpace=wrap;html=1;fillColor=#dae8fc;strokeColor=#6c8ebf;" parent="ExSx5SIZApUU_Iw7rpWn-6" vertex="1">
          <mxGeometry x="-217" y="150" width="240" height="120" as="geometry" />
        </mxCell>
        <mxCell id="ExSx5SIZApUU_Iw7rpWn-27" value="eth1" style="rounded=0;whiteSpace=wrap;html=1;fillColor=#e3c800;fontColor=#000000;strokeColor=#B09500;" parent="ExSx5SIZApUU_Iw7rpWn-6" vertex="1">
          <mxGeometry x="-50" y="480" width="80" height="20" as="geometry" />
        </mxCell>
        <mxCell id="ExSx5SIZApUU_Iw7rpWn-28" value="eth0" style="rounded=0;whiteSpace=wrap;html=1;fillColor=#e3c800;fontColor=#000000;strokeColor=#B09500;" parent="ExSx5SIZApUU_Iw7rpWn-6" vertex="1">
          <mxGeometry x="-137" y="140" width="80" height="20" as="geometry" />
        </mxCell>
        <mxCell id="ExSx5SIZApUU_Iw7rpWn-29" value="eth1" style="rounded=0;whiteSpace=wrap;html=1;fillColor=#e3c800;fontColor=#000000;strokeColor=#B09500;" parent="ExSx5SIZApUU_Iw7rpWn-6" vertex="1">
          <mxGeometry x="-197" y="260" width="80" height="20" as="geometry" />
        </mxCell>
        <mxCell id="ExSx5SIZApUU_Iw7rpWn-30" value="eth0" style="rounded=0;whiteSpace=wrap;html=1;fillColor=#e3c800;fontColor=#000000;strokeColor=#B09500;" parent="ExSx5SIZApUU_Iw7rpWn-6" vertex="1">
          <mxGeometry x="-170" y="480" width="80" height="20" as="geometry" />
        </mxCell>
        <mxCell id="ExSx5SIZApUU_Iw7rpWn-34" value="10.0.0.31" style="text;html=1;align=center;verticalAlign=middle;resizable=0;points=[];autosize=1;strokeColor=none;fillColor=none;" parent="ExSx5SIZApUU_Iw7rpWn-6" vertex="1">
          <mxGeometry x="-77" y="450" width="70" height="30" as="geometry" />
        </mxCell>
        <mxCell id="ExSx5SIZApUU_Iw7rpWn-35" value="10.0.0.254" style="text;html=1;align=center;verticalAlign=middle;resizable=0;points=[];autosize=1;strokeColor=none;fillColor=none;" parent="ExSx5SIZApUU_Iw7rpWn-6" vertex="1">
          <mxGeometry x="-40" y="280" width="80" height="30" as="geometry" />
        </mxCell>
        <mxCell id="ExSx5SIZApUU_Iw7rpWn-38" value="DHCP" style="text;html=1;align=center;verticalAlign=middle;resizable=0;points=[];autosize=1;strokeColor=none;fillColor=none;" parent="ExSx5SIZApUU_Iw7rpWn-6" vertex="1">
          <mxGeometry x="-97" y="110" width="60" height="30" as="geometry" />
        </mxCell>
        <mxCell id="p08W6Ddb9qVV3mvQhUgt-3" value="&lt;font style=&quot;font-size: 18px;&quot;&gt;Baremetal Node&lt;/font&gt;" style="rounded=1;whiteSpace=wrap;html=1;fillColor=#dae8fc;strokeColor=#6c8ebf;" parent="ExSx5SIZApUU_Iw7rpWn-6" vertex="1">
          <mxGeometry x="314" y="490" width="240" height="120" as="geometry" />
        </mxCell>
        <mxCell id="p08W6Ddb9qVV3mvQhUgt-4" value="eth1" style="rounded=0;whiteSpace=wrap;html=1;fillColor=#e3c800;fontColor=#000000;strokeColor=#B09500;" parent="ExSx5SIZApUU_Iw7rpWn-6" vertex="1">
          <mxGeometry x="454" y="480" width="80" height="20" as="geometry" />
        </mxCell>
        <mxCell id="p08W6Ddb9qVV3mvQhUgt-5" value="eth0" style="rounded=0;whiteSpace=wrap;html=1;fillColor=#e3c800;fontColor=#000000;strokeColor=#B09500;" parent="ExSx5SIZApUU_Iw7rpWn-6" vertex="1">
          <mxGeometry x="334" y="480" width="80" height="20" as="geometry" />
        </mxCell>
        <mxCell id="p08W6Ddb9qVV3mvQhUgt-6" value="10.0.0.51" style="text;html=1;align=center;verticalAlign=middle;resizable=0;points=[];autosize=1;strokeColor=none;fillColor=none;" parent="ExSx5SIZApUU_Iw7rpWn-6" vertex="1">
          <mxGeometry x="490" y="450" width="70" height="30" as="geometry" />
        </mxCell>
        <mxCell id="unMDNU1y0vNZGLnm1EJ_-5" value="eth2" style="rounded=0;whiteSpace=wrap;html=1;fillColor=#e3c800;fontColor=#000000;strokeColor=#B09500;" vertex="1" parent="ExSx5SIZApUU_Iw7rpWn-6">
          <mxGeometry x="-77" y="260" width="80" height="20" as="geometry" />
        </mxCell>
        <mxCell id="unMDNU1y0vNZGLnm1EJ_-6" value="172.16.0.254" style="text;html=1;align=center;verticalAlign=middle;resizable=0;points=[];autosize=1;strokeColor=none;fillColor=none;" vertex="1" parent="ExSx5SIZApUU_Iw7rpWn-6">
          <mxGeometry x="-260" y="280" width="100" height="30" as="geometry" />
        </mxCell>
        <mxCell id="unMDNU1y0vNZGLnm1EJ_-8" value="eth2" style="rounded=0;whiteSpace=wrap;html=1;fillColor=#e3c800;fontColor=#000000;strokeColor=#B09500;" vertex="1" parent="ExSx5SIZApUU_Iw7rpWn-6">
          <mxGeometry x="60" y="480" width="80" height="20" as="geometry" />
        </mxCell>
        <mxCell id="unMDNU1y0vNZGLnm1EJ_-9" value="&lt;div&gt;eth3&lt;/div&gt;" style="rounded=0;whiteSpace=wrap;html=1;fillColor=#e3c800;fontColor=#000000;strokeColor=#B09500;" vertex="1" parent="ExSx5SIZApUU_Iw7rpWn-6">
          <mxGeometry x="170" y="480" width="80" height="20" as="geometry" />
        </mxCell>
        <mxCell id="unMDNU1y0vNZGLnm1EJ_-13" value="&lt;font style=&quot;font-size: 18px;&quot;&gt;Controler Node&lt;/font&gt;" style="rounded=1;whiteSpace=wrap;html=1;fillColor=#dae8fc;strokeColor=#6c8ebf;" vertex="1" parent="ExSx5SIZApUU_Iw7rpWn-6">
          <mxGeometry x="-700" y="490" width="460" height="120" as="geometry" />
        </mxCell>
        <mxCell id="unMDNU1y0vNZGLnm1EJ_-14" value="eth1" style="rounded=0;whiteSpace=wrap;html=1;fillColor=#e3c800;fontColor=#000000;strokeColor=#B09500;" vertex="1" parent="ExSx5SIZApUU_Iw7rpWn-6">
          <mxGeometry x="-560" y="480" width="80" height="20" as="geometry" />
        </mxCell>
        <mxCell id="unMDNU1y0vNZGLnm1EJ_-15" value="eth0" style="rounded=0;whiteSpace=wrap;html=1;fillColor=#e3c800;fontColor=#000000;strokeColor=#B09500;" vertex="1" parent="ExSx5SIZApUU_Iw7rpWn-6">
          <mxGeometry x="-680" y="480" width="80" height="20" as="geometry" />
        </mxCell>
        <mxCell id="unMDNU1y0vNZGLnm1EJ_-16" value="172.16.0.11" style="text;html=1;align=center;verticalAlign=middle;resizable=0;points=[];autosize=1;strokeColor=none;fillColor=none;" vertex="1" parent="ExSx5SIZApUU_Iw7rpWn-6">
          <mxGeometry x="-730" y="450" width="90" height="30" as="geometry" />
        </mxCell>
        <mxCell id="unMDNU1y0vNZGLnm1EJ_-17" value="eth2" style="rounded=0;whiteSpace=wrap;html=1;fillColor=#e3c800;fontColor=#000000;strokeColor=#B09500;" vertex="1" parent="ExSx5SIZApUU_Iw7rpWn-6">
          <mxGeometry x="-450" y="480" width="80" height="20" as="geometry" />
        </mxCell>
        <mxCell id="unMDNU1y0vNZGLnm1EJ_-18" value="&lt;div&gt;eth3&lt;/div&gt;" style="rounded=0;whiteSpace=wrap;html=1;fillColor=#e3c800;fontColor=#000000;strokeColor=#B09500;" vertex="1" parent="ExSx5SIZApUU_Iw7rpWn-6">
          <mxGeometry x="-340" y="480" width="80" height="20" as="geometry" />
        </mxCell>
        <mxCell id="unMDNU1y0vNZGLnm1EJ_-29" value="10.0.0.11" style="text;html=1;align=center;verticalAlign=middle;resizable=0;points=[];autosize=1;strokeColor=none;fillColor=none;" vertex="1" parent="ExSx5SIZApUU_Iw7rpWn-6">
          <mxGeometry x="-590" y="450" width="70" height="30" as="geometry" />
        </mxCell>
        <mxCell id="unMDNU1y0vNZGLnm1EJ_-30" value="172.16.0.31" style="text;html=1;align=center;verticalAlign=middle;resizable=0;points=[];autosize=1;strokeColor=none;fillColor=none;" vertex="1" parent="ExSx5SIZApUU_Iw7rpWn-6">
          <mxGeometry x="-217" y="450" width="90" height="30" as="geometry" />
        </mxCell>
        <mxCell id="unMDNU1y0vNZGLnm1EJ_-31" value="172.16.0.51" style="text;html=1;align=center;verticalAlign=middle;resizable=0;points=[];autosize=1;strokeColor=none;fillColor=none;" vertex="1" parent="ExSx5SIZApUU_Iw7rpWn-6">
          <mxGeometry x="368" y="450" width="90" height="30" as="geometry" />
        </mxCell>
      </root>
    </mxGraphModel>
  </diagram>
</mxfile>
